<?xml version="1.0" encoding="UTF-8"?>
<svg width="319px" height="80px" viewBox="0 0 319 80" version="1.1" xmlns="http://www.w3.org/2000/svg" xmlns:xlink="http://www.w3.org/1999/xlink">
    <title>编组</title>
    <g id="Page-1" stroke="none" stroke-width="1" fill="none" fill-rule="evenodd">
        <g id="PlatON-NETWORK横-黑底备份" transform="translate(-30.000000, -40.000000)">
            <g id="编组" transform="translate(30.000000, 40.000000)">
                <g id="分组">
                    <polygon id="Fill-13" fill="#F9BE00" points="29.8168344 49.8931469 49.4238366 49.8931469 49.4238366 30.1057343 29.8168344 30.1057343"></polygon>
                    <path d="M20.4064712,69.0238881 L60.0412195,69.0238881 C64.6311539,69.0238881 68.3651875,65.2560559 68.3651875,60.6238881 L68.3651875,20.6244476 L59.2424158,20.6244476 L59.2424158,59.8171748 L20.4064712,59.8171748 L20.4064712,69.0238881 Z" id="Fill-15" fill="#FFFFFF"></path>
                    <path d="M58.8334792,20.1823776 L58.8334792,10.9751049 L19.1987309,10.9751049 C14.6093508,10.9751049 10.8747629,14.7434965 10.8747629,19.3756643 L10.8747629,59.3745455 L19.9975346,59.3745455 L19.9975346,20.1823776 L58.8334792,20.1823776 Z" id="Fill-16" fill="#FFFFFF"></path>
                    <polygon id="Fill-17" fill="#08B8DE" points="68.3650766 10.9751049 79.2401167 10.9751049 79.2401167 0 68.3650766 0"></polygon>
                    <polygon id="Fill-18" fill="#E40065" points="0 79.9994406 10.8750401 79.9994406 10.8750401 69.0237762 0 69.0237762"></polygon>
                </g>
                <path d="M100.1,70 L100.1,57.32 L104.4,57.32 L104.4,56 L94.4,56 L94.4,57.32 L98.7,57.32 L98.7,70 L100.1,70 Z M107.52,70 L107.52,64.76 C107.52,62.08 109,61.04 110.76,61.04 C112.5,61.04 113.48,62.08 113.48,63.86 L113.48,70 L114.8,70 L114.8,63.86 C114.8,61.36 113.32,59.76 110.88,59.76 C109.46,59.76 108.3,60.3 107.52,61.56 L107.52,56 L106.2,56 L106.2,70 L107.52,70 Z M122.08,70.24 C124.1,70.24 125.64,69.3 126.48,67.94 L125.32,67.26 C124.78,68.22 123.68,68.96 122.1,68.96 C119.98,68.96 118.4,67.7 118.12,65.66 L126.9,65.66 C126.92,65.46 126.94,65.24 126.94,65.04 C126.94,62.3 125.04,59.76 121.98,59.76 C118.88,59.76 116.76,62.06 116.76,65 C116.76,68.02 118.92,70.24 122.08,70.24 Z M125.58,64.38 L118.12,64.38 C118.38,62.42 119.88,61.04 121.98,61.04 C123.7,61.04 125.3,62.18 125.58,64.38 Z M134.32,70 L135.62,66.56 L142.26,66.56 L143.56,70 L145.04,70 L139.66,56 L138.22,56 L132.84,70 L134.32,70 Z M141.76,65.24 L136.12,65.24 L138.94,57.74 L141.76,65.24 Z M147.96,70 L147.96,55.4 L146.64,55.4 L146.64,70 L147.96,70 Z M155.32,70.24 C157.1,70.24 158.52,69.38 159.36,68.04 L159.36,70 L160.68,70 L160.68,60 L159.36,60 L159.36,61.96 C158.52,60.62 157.1,59.76 155.32,59.76 C152.5,59.76 150.16,62.04 150.16,65 C150.16,67.96 152.5,70.24 155.32,70.24 Z M155.42,68.96 C153.2,68.96 151.48,67.22 151.48,65 C151.48,62.78 153.2,61.04 155.42,61.04 C157.64,61.04 159.36,62.78 159.36,65 C159.36,67.22 157.64,68.96 155.42,68.96 Z M167.8,70.92 L172.08,60 L170.68,60 L167.44,68.38 L163.68,60 L162.28,60 L166.76,70.06 L166.5,70.68 C165.96,71.98 165.06,72.9 163.76,72.76 L163.76,74 C165.56,74.14 167.04,72.84 167.8,70.92 Z M178.24,70.24 C180.02,70.24 181.44,69.38 182.28,68.04 L182.28,70 L183.6,70 L183.6,60 L182.28,60 L182.28,61.96 C181.44,60.62 180.02,59.76 178.24,59.76 C175.42,59.76 173.08,62.04 173.08,65 C173.08,67.96 175.42,70.24 178.24,70.24 Z M178.34,68.96 C176.12,68.96 174.4,67.22 174.4,65 C174.4,62.78 176.12,61.04 178.34,61.04 C180.56,61.04 182.28,62.78 182.28,65 C182.28,67.22 180.56,68.96 178.34,68.96 Z M197.7,70 C199.86,70 201.6,68.26 201.6,66.1 C201.6,64.54 200.68,63.3 199.36,62.74 C200.36,62.12 201,61.06 201,59.76 C201,57.7 199.32,56 197.24,56 L191.6,56 L191.6,70 L197.7,70 Z M197.24,62.2 L193,62.2 L193,57.32 L197.24,57.32 C198.54,57.32 199.6,58.42 199.6,59.76 C199.6,61.12 198.54,62.2 197.24,62.2 Z M197.7,68.68 L193,68.68 L193,63.52 L197.7,63.52 C199.08,63.52 200.2,64.68 200.2,66.1 C200.2,67.54 199.08,68.68 197.7,68.68 Z M205.12,70 L205.12,55.4 L203.8,55.4 L203.8,70 L205.12,70 Z M212.58,70.24 C215.5,70.24 217.84,67.96 217.84,65 C217.84,62.04 215.5,59.76 212.58,59.76 C209.66,59.76 207.32,62.04 207.32,65 C207.32,67.96 209.66,70.24 212.58,70.24 Z M212.58,68.96 C210.36,68.96 208.64,67.22 208.64,65 C208.64,62.78 210.36,61.04 212.58,61.04 C214.8,61.04 216.52,62.78 216.52,65 C216.52,67.22 214.8,68.96 212.58,68.96 Z M224.7,70.24 C226.66,70.24 228.36,69.22 229.18,67.64 L228.08,67 C227.44,68.16 226.22,68.96 224.7,68.96 C222.48,68.96 220.76,67.22 220.76,65 C220.76,62.78 222.48,61.04 224.7,61.04 C226.2,61.04 227.46,61.82 228,63 L229.08,62.38 C228.36,60.8 226.68,59.76 224.7,59.76 C221.68,59.76 219.44,62.04 219.44,65 C219.44,67.96 221.68,70.24 224.7,70.24 Z M232.4,70 L232.4,65.18 L237.4,70 L239.16,70 L233.8,64.8 L238.96,60 L237.16,60 L232.4,64.42 L232.4,56 L231.08,56 L231.08,70 L232.4,70 Z M254.36,70 L254.36,68.68 L247.56,68.68 L247.56,63.6 L253.76,63.6 L253.76,62.28 L247.56,62.28 L247.56,57.32 L254.26,57.32 L254.26,56 L246.16,56 L246.16,70 L254.36,70 Z M257.14,70 L260.26,65.88 L263.38,70 L264.96,70 L261.06,64.82 L264.7,60 L263.12,60 L260.26,63.78 L257.4,60 L255.82,60 L259.48,64.82 L255.56,70 L257.14,70 Z M268.08,74 L268.08,68.04 C268.92,69.38 270.34,70.24 272.12,70.24 C274.94,70.24 277.28,67.96 277.28,65 C277.28,62.04 274.94,59.76 272.12,59.76 C270.34,59.76 268.92,60.62 268.08,61.96 L268.08,60 L266.76,60 L266.76,74 L268.08,74 Z M272.02,68.96 C269.8,68.96 268.08,67.22 268.08,65 C268.08,62.78 269.8,61.04 272.02,61.04 C274.24,61.04 275.96,62.78 275.96,65 C275.96,67.22 274.24,68.96 272.02,68.96 Z M280.8,70 L280.8,55.4 L279.48,55.4 L279.48,70 L280.8,70 Z M288.26,70.24 C291.18,70.24 293.52,67.96 293.52,65 C293.52,62.04 291.18,59.76 288.26,59.76 C285.34,59.76 283,62.04 283,65 C283,67.96 285.34,70.24 288.26,70.24 Z M288.26,68.96 C286.04,68.96 284.32,67.22 284.32,65 C284.32,62.78 286.04,61.04 288.26,61.04 C290.48,61.04 292.2,62.78 292.2,65 C292.2,67.22 290.48,68.96 288.26,68.96 Z M297.04,70 L297.04,64.44 C297.04,61.96 298.6,61.12 300.2,61.12 L300.2,59.84 C298.92,59.84 297.74,60.26 297.04,61.66 L297.04,60 L295.72,60 L295.72,70 L297.04,70 Z M306.72,70.24 C308.74,70.24 310.28,69.3 311.12,67.94 L309.96,67.26 C309.42,68.22 308.32,68.96 306.74,68.96 C304.62,68.96 303.04,67.7 302.76,65.66 L311.54,65.66 C311.56,65.46 311.58,65.24 311.58,65.04 C311.58,62.3 309.68,59.76 306.62,59.76 C303.52,59.76 301.4,62.06 301.4,65 C301.4,68.02 303.56,70.24 306.72,70.24 Z M310.22,64.38 L302.76,64.38 C303.02,62.42 304.52,61.04 306.62,61.04 C308.34,61.04 309.94,62.18 310.22,64.38 Z M315,70 L315,64.44 C315,61.96 316.56,61.12 318.16,61.12 L318.16,59.84 C316.88,59.84 315.7,60.26 315,61.66 L315,60 L313.68,60 L313.68,70 L315,70 Z" id="TheAlayaBlockExplorer" fill="#B3B3B3" fill-rule="nonzero"></path>
                <path d="M98.56,34 L99.82,30.22 L108.19,30.22 L109.45,34 L113.95,34 L106.57,13 L101.44,13 L94.09,34 L98.56,34 Z M106.9,26.35 L101.14,26.35 L104.02,17.77 L106.9,26.35 Z M119.68,34 L119.68,12.1 L115.81,12.1 L115.81,34 L119.68,34 Z M129.73,34.42 C131.92,34.42 133.54,33.58 134.62,32.23 L134.62,34 L138.49,34 L138.49,19 L134.62,19 L134.62,20.77 C133.54,19.42 131.92,18.58 129.73,18.58 C125.74,18.58 122.44,22.03 122.44,26.5 C122.44,30.97 125.74,34.42 129.73,34.42 Z M130.45,30.73 C128.08,30.73 126.31,29.02 126.31,26.5 C126.31,23.98 128.08,22.27 130.45,22.27 C132.85,22.27 134.62,23.98 134.62,26.5 C134.62,29.02 132.85,30.73 130.45,30.73 Z M150.46,34 L155.92,19 L151.78,19 L148.45,29.08 L144.55,19 L140.32,19 L146.47,33.52 C145.75,35.53 144.67,36.43 142.54,36.4 L142.54,40 C146.35,40.21 148.9,38.32 150.46,34 Z M164.26,34.42 C166.45,34.42 168.07,33.58 169.15,32.23 L169.15,34 L173.02,34 L173.02,19 L169.15,19 L169.15,20.77 C168.07,19.42 166.45,18.58 164.26,18.58 C160.27,18.58 156.97,22.03 156.97,26.5 C156.97,30.97 160.27,34.42 164.26,34.42 Z M164.98,30.73 C162.61,30.73 160.84,29.02 160.84,26.5 C160.84,23.98 162.61,22.27 164.98,22.27 C167.38,22.27 169.15,23.98 169.15,26.5 C169.15,29.02 167.38,30.73 164.98,30.73 Z M183.88,34.42 C188.35,34.42 191.5,32.02 191.5,28.09 C191.5,23.8 187.96,22.69 184.63,21.64 C181.45,20.68 180.64,19.99 180.64,18.7 C180.64,17.5 181.66,16.6 183.4,16.6 C185.53,16.6 186.67,17.71 187.42,19.3 L190.9,17.29 C189.49,14.35 186.85,12.58 183.4,12.58 C179.8,12.58 176.5,14.86 176.5,18.82 C176.5,22.81 179.62,24.16 182.83,25.09 C185.95,25.99 187.36,26.59 187.36,28.15 C187.36,29.32 186.49,30.37 184,30.37 C181.39,30.37 179.92,29.11 179.17,27.16 L175.63,29.23 C176.77,32.35 179.59,34.42 183.88,34.42 Z M201.16,34.42 C204.1,34.42 206.65,32.86 207.94,30.52 L204.58,28.6 C203.98,29.83 202.69,30.58 201.13,30.58 C198.82,30.58 197.11,28.87 197.11,26.5 C197.11,24.1 198.82,22.39 201.13,22.39 C202.66,22.39 203.95,23.17 204.55,24.4 L207.88,22.45 C206.65,20.14 204.1,18.58 201.16,18.58 C196.6,18.58 193.24,22.03 193.24,26.5 C193.24,30.97 196.6,34.42 201.16,34.42 Z M216.61,34.42 C218.8,34.42 220.42,33.58 221.5,32.23 L221.5,34 L225.37,34 L225.37,19 L221.5,19 L221.5,20.77 C220.42,19.42 218.8,18.58 216.61,18.58 C212.62,18.58 209.32,22.03 209.32,26.5 C209.32,30.97 212.62,34.42 216.61,34.42 Z M217.33,30.73 C214.96,30.73 213.19,29.02 213.19,26.5 C213.19,23.98 214.96,22.27 217.33,22.27 C219.73,22.27 221.5,23.98 221.5,26.5 C221.5,29.02 219.73,30.73 217.33,30.73 Z M232.75,34 L232.75,25.9 C232.75,23.29 234.16,22.18 236.05,22.18 C237.79,22.18 239.02,23.23 239.02,25.27 L239.02,34 L242.89,34 L242.89,24.79 C242.89,20.8 240.4,18.58 237.22,18.58 C235.21,18.58 233.65,19.33 232.75,20.68 L232.75,19 L228.88,19 L228.88,34 L232.75,34 Z" id="AlayaScan" fill="#FFFFFF" fill-rule="nonzero"></path>
            </g>
        </g>
    </g>
</svg>