<?xml version="1.0" encoding="UTF-8"?>
<svg width="12px" height="12px" viewBox="0 0 12 12" version="1.1" xmlns="http://www.w3.org/2000/svg" xmlns:xlink="http://www.w3.org/1999/xlink">
    <!-- Generator: Sketch 59.1 (86144) - https://sketch.com -->
    <title>icon-问号</title>
    <desc>Created with Sketch.</desc>
    <g id="Page-1" stroke="none" stroke-width="1" fill="none" fill-rule="evenodd">
        <g id="03-账户详情-委托" transform="translate(-839.000000, -562.000000)" fill="#AAAAAA" fill-rule="nonzero">
            <g id="2" transform="translate(0.000000, 408.000000)">
                <g id="内容2" transform="translate(160.000000, 152.000000)">
                    <g id="列表">
                        <g id="标题">
                            <g id="icon-问号" transform="translate(679.000000, 2.000000)">
                                <path d="M6.0033608,0.00645298661 C2.69686661,0.00645298661 0.00685043304,2.69696254 0.00685043304,6.00411457 C0.00685043304,9.31122549 2.69686661,12.001735 6.0033608,12.001735 C9.309855,12.001735 11.9998301,9.31122548 11.9998301,6.00411457 C11.9998301,2.69696254 9.3098413,0.00645298661 6.0033608,0.00645298661 Z M6.0033608,11.49132 C2.97829866,11.49132 0.517224402,9.02975233 0.517224402,6.00411457 C0.517224402,2.97843569 2.97829866,0.516909174 6.0033608,0.516909174 C9.02842295,0.516909174 11.4894972,2.97843569 11.4894972,6.00411457 C11.4894972,9.02973864 9.02840925,11.49132 6.0033608,11.49132 Z M7.60463857,2.79145847 C7.23156123,2.460291 6.73006809,2.29476209 6.10020029,2.29476209 C5.46708441,2.29476209 4.87918129,2.46434768 4.33655948,2.80355999 L4.33655948,3.79216971 C4.80488652,3.32376044 5.34750834,3.08950098 5.96452086,3.08950098 C6.35531875,3.08950098 6.66464046,3.19291887 6.89233523,3.39964499 C7.12007111,3.60643963 7.2339459,3.86969886 7.2339459,4.18958712 C7.2339459,4.49001429 7.16043232,4.75579523 7.01351478,4.98672438 C6.8664739,5.21776317 6.62175753,5.46578243 6.27948901,5.73061773 C5.93061469,6.00197661 5.68836522,6.2596579 5.55269949,6.50355197 C5.41702006,6.74756938 5.34916663,7.0390746 5.34916663,7.37824579 L5.34916663,7.79506947 L6.19227044,7.79506947 L6.19227044,7.41703093 C6.19227044,7.1263069 6.24877613,6.90021561 6.36181492,6.73860633 C6.47485371,6.57712039 6.69616195,6.35899172 7.02563,6.08438475 C7.43580675,5.74521356 7.72817538,5.42214575 7.90255772,5.1151813 C8.07702229,4.80831279 8.16421346,4.46744218 8.16421346,4.09262431 C8.16421346,3.55637529 7.9777296,3.12265335 7.60463857,2.79145847 Z M5.76586697,8.80782738 C5.59792598,8.80782738 5.4533794,8.86685479 5.33224097,8.98477255 C5.21114364,9.10277254 5.15055387,9.24885407 5.15055387,9.42331864 C5.15055387,9.601045 5.21188371,9.74798995 5.33468046,9.86434533 C5.45739498,9.98064591 5.60116037,10.0388099 5.76588068,10.0388099 C5.93708346,10.0388099 6.08398729,9.97983731 6.20682516,9.86186474 C6.32949856,9.74398808 6.39091063,9.59778321 6.39091063,9.42331864 C6.39091063,9.25211586 6.32949856,9.10673329 6.20682516,8.98717093 C6.08397358,8.86767708 5.93706975,8.80782738 5.76586697,8.80782738 Z" id="形状"></path>
                            </g>
                        </g>
                    </g>
                </g>
            </g>
        </g>
    </g>
</svg>