<?xml version="1.0" encoding="UTF-8"?>
<svg width="73px" height="16px" viewBox="0 0 73 16" version="1.1" xmlns="http://www.w3.org/2000/svg" xmlns:xlink="http://www.w3.org/1999/xlink">
    <!-- Generator: Sketch 52.2 (67145) - http://www.bohemiancoding.com/sketch -->
    <title>logo-platscan-字</title>
    <desc>Created with Sketch.</desc>
    <g id="logo-platscan-字" stroke="none" stroke-width="1" fill="none" fill-rule="evenodd">
        <g transform="translate(0.000000, 1.000000)" fill="#FFFFFF" id="logo-字">
            <g transform="translate(0.972603, 0.924444)">
                <path d="M10.2260274,0 L11.6575342,0 C11.9336766,-5.07265313e-17 12.1575342,0.223857625 12.1575342,0.5 L12.1575342,11.5177778 C12.1575342,11.7939202 11.9336766,12.0177778 11.6575342,12.0177778 L10.2260274,12.0177778 C9.94988502,12.0177778 9.7260274,11.7939202 9.7260274,11.5177778 L9.7260274,0.5 C9.7260274,0.223857625 9.94988502,5.07265313e-17 10.2260274,0 Z" id="Rectangle-3"></path>
                <path d="M2.02002107,6.00888889 L4.73044062,6.00888889 C5.83664652,6.00888889 6.73340358,5.11213182 6.73340358,4.00592593 C6.73340358,2.89972003 5.83664652,2.00296296 4.73044062,2.00296296 L2.02002107,2.00296296 L2.02002107,6.00888889 Z M2.02002107,8.01185185 L2.02002107,12.0177778 L0,12.0177778 L0,0 L2.02002107,0 L4.74749873,8.8817842e-16 C6.95991053,4.81764966e-16 8.75342466,1.79351413 8.75342466,4.00592593 C8.75342466,6.21833772 6.95991053,8.01185185 4.74749873,8.01185185 L2.02002107,8.01185185 Z" id="Combined-Shape"></path>
                <path d="M20.3498419,5.56379168 L20.3498419,4.62222222 L22.369863,4.62222222 L22.369863,12.0177778 L20.3498419,12.0177778 L20.3498419,11.0762083 C19.6350824,11.661739 18.6912086,12.0177778 17.6564805,12.0177778 C15.4252268,12.0177778 13.6164384,10.3622263 13.6164384,8.32 C13.6164384,6.27777373 15.4252268,4.62222222 17.6564805,4.62222222 C18.6912086,4.62222222 19.6350824,4.97826099 20.3498419,5.56379168 Z M17.6564805,10.1688889 C18.7721073,10.1688889 19.6765016,9.34111314 19.6765016,8.32 C19.6765016,7.29888686 18.7721073,6.47111111 17.6564805,6.47111111 C16.5408537,6.47111111 15.6364594,7.29888686 15.6364594,8.32 C15.6364594,9.34111314 16.5408537,10.1688889 17.6564805,10.1688889 Z" id="Combined-Shape"></path>
                <path d="M24.3150685,2.77333333 L26.7465753,2.77333333 L26.7465753,4.62222222 L29.1780822,4.62222222 L29.1780822,6.47111111 L26.7465753,6.47111111 L26.7465753,9.66888889 C26.7465753,9.94503126 26.970433,10.1688889 27.2465753,10.1688889 L29.1780822,10.1688889 L29.1780822,12.0177778 L26.3150685,12.0177778 C25.210499,12.0177778 24.3150685,11.1223473 24.3150685,10.0177778 L24.3150685,2.77333333 Z" id="Rectangle-5"></path>
                <path d="M32.7339918,7.94749963 C32.7339918,8.3336149 32.8076193,8.66073543 32.9548766,8.92887104 C33.1021339,9.19700665 33.29753,9.41419323 33.5410709,9.5804373 C33.7846118,9.74668138 34.0706265,9.87002191 34.3991235,9.95046259 C34.7276205,10.0309033 35.0674399,10.071123 35.4185919,10.071123 C35.6564691,10.071123 35.9113336,10.0523538 36.1831932,10.0148148 C36.4550528,9.97727583 36.7099174,9.9048803 36.9477945,9.79762606 C37.1856717,9.69037182 37.3838997,9.54289945 37.5424844,9.35520452 C37.7010692,9.1675096 37.7803604,8.92887249 37.7803604,8.63928603 C37.7803604,8.32824873 37.6755827,8.07620504 37.4660243,7.8831474 C37.2564659,7.69008977 36.9817785,7.52921082 36.641954,7.40050573 C36.3021295,7.27180064 35.9170008,7.15918537 35.4865565,7.06265655 C35.0561121,6.96612773 34.6200105,6.8588751 34.1782387,6.74089543 C33.7251393,6.63364119 33.2833741,6.50225671 32.8529297,6.34673806 C32.4224854,6.19121941 32.0373567,5.99012072 31.6975322,5.74343597 C31.3577077,5.49675121 31.0830204,5.18839989 30.8734619,4.81837275 C30.6639035,4.44834561 30.5591258,4.00056587 30.5591258,3.47502008 C30.5591258,2.88512175 30.6922217,2.37299042 30.9584176,1.93861074 C31.2246135,1.50423106 31.5729284,1.14225342 32.0033727,0.852666964 C32.4338171,0.56308051 32.9208916,0.348575242 33.4646108,0.209144727 C34.00833,0.0697142119 34.552041,0 35.0957602,0 C35.7300993,0 36.3389424,0.067032896 36.9223078,0.201100699 C37.5056732,0.335168502 38.0238978,0.552355085 38.4769971,0.852666964 C38.9300965,1.15297884 39.2897387,1.53640701 39.5559345,2.00296296 C39.8221304,2.46951892 39.9552263,3.03527656 39.9552263,3.70025286 L37.372573,3.70025286 C37.3499181,3.35703929 37.2734587,3.07281981 37.1431926,2.8475859 C37.0129266,2.62235199 36.840185,2.44538514 36.6249629,2.31668005 C36.4097407,2.18797496 36.1633716,2.09681022 35.8858483,2.0431831 C35.6083249,1.98955598 35.3053193,1.96274282 34.9768223,1.96274282 C34.7616001,1.96274282 34.5463811,1.98419335 34.3311589,2.02709505 C34.1159367,2.06999674 33.9205406,2.14507359 33.7449646,2.25232783 C33.5693886,2.35958207 33.4249654,2.49364786 33.3116905,2.65452923 C33.1984157,2.81541059 33.1417791,3.0191906 33.1417791,3.26587535 C33.1417791,3.49110926 33.1870884,3.67343874 33.2777082,3.81286925 C33.3683281,3.95229977 33.5467333,4.08100293 33.8129292,4.1989826 C34.079125,4.31696226 34.4472627,4.43494016 34.9173533,4.55291983 C35.3874438,4.67089949 36.0019506,4.82105318 36.760892,5.00338539 C36.9874416,5.04628709 37.3017746,5.12404525 37.7039003,5.2366622 C38.1060259,5.34927916 38.5053137,5.52892732 38.9017756,5.77561208 C39.2982376,6.02229684 39.6408888,6.35209868 39.9297396,6.76502752 C40.2185905,7.17795635 40.3630137,7.70617557 40.3630137,8.34970103 C40.3630137,8.87524681 40.2554042,9.3632463 40.040182,9.81371412 C39.8249599,10.2641819 39.5049632,10.6529727 39.0801826,10.9800982 C38.655402,11.3072236 38.1286819,11.5619486 37.5000066,11.7442808 C36.8713312,11.926613 36.1435514,12.0177778 35.3166451,12.0177778 C34.6483235,12.0177778 33.9998348,11.9400196 33.3711595,11.784501 C32.7424842,11.6289823 32.1874458,11.3849826 31.7060278,11.0524944 C31.2246097,10.7200063 30.8423129,10.2963584 30.5591258,9.781538 C30.2759387,9.26671764 30.140011,8.65537763 30.1513384,7.94749963 L32.7339918,7.94749963 Z" id="S"></path>
                <path d="M49.6027397,7.3955344 L47.3899549,7.3955344 C47.2335166,6.67179426 46.5537186,6.47109701 45.7123288,6.47109701 C44.9431568,6.47109701 44.0477222,6.80687135 44.0477222,8.31997179 C44.0477222,9.85084553 44.9431568,10.1688466 45.7123288,10.1688466 C46.5166189,10.1688466 47.2507404,10.0883871 47.3899549,9.24440918 L49.6027397,9.24440918 C49.3498752,11.5815137 48.0015876,12.0177778 45.7142275,12.0177778 C43.4922214,12.0177778 41.8219178,11.087021 41.8219178,8.31997179 C41.8219178,5.55292259 43.4065761,4.62222222 45.7123288,4.62222222 C47.9343358,4.62222222 49.4524044,5.41976388 49.6027397,7.3955344 Z" id="路径"></path>
                <path d="M57.308746,5.56379168 L57.308746,4.62222222 L59.3287671,4.62222222 L59.3287671,12.0177778 L57.308746,12.0177778 L57.308746,11.0762083 C56.5939865,11.661739 55.6501127,12.0177778 54.6153846,12.0177778 C52.3841309,12.0177778 50.5753425,10.3622263 50.5753425,8.32 C50.5753425,6.27777373 52.3841309,4.62222222 54.6153846,4.62222222 C55.6501127,4.62222222 56.5939865,4.97826099 57.308746,5.56379168 Z M54.6153846,10.1688889 C55.7310114,10.1688889 56.6354057,9.34111314 56.6354057,8.32 C56.6354057,7.29888686 55.7310114,6.47111111 54.6153846,6.47111111 C53.4997578,6.47111111 52.5953635,7.29888686 52.5953635,8.32 C52.5953635,9.34111314 53.4997578,10.1688889 54.6153846,10.1688889 Z" id="Combined-Shape-Copy"></path>
                <path d="M69.0547945,12.0177778 L66.7961055,12.0177778 L66.7961055,8.66694253 C66.7961055,7.88606966 66.7478778,7.38100684 66.6514208,7.15173893 C66.5549639,6.92247102 66.3982237,6.74428032 66.1811955,6.61716148 C65.9641674,6.49004264 65.7029337,6.42648417 65.3974867,6.42648417 C65.0063002,6.42648417 64.6553093,6.51728198 64.3445036,6.69888033 C64.0336978,6.88047867 63.8206919,7.12109287 63.7054795,7.42073013 C63.590267,7.7203674 63.5326616,8.27423404 63.5326616,9.08234667 L63.5326616,12.0177778 L61.2739726,12.0177778 L61.2739726,4.78565991 L63.3719008,4.78565991 L63.3719008,5.84800491 C64.1167628,5.03081237 65.0545247,4.62222222 66.1852145,4.62222222 C66.6835755,4.62222222 67.1390598,4.69826539 67.5516812,4.850354 C67.9643026,5.00244261 68.2764433,5.19652293 68.4881128,5.43260078 C68.6997822,5.66867862 68.8471448,5.93653216 68.9302049,6.23616943 C69.0132651,6.5358067 69.0547945,6.96482635 69.0547945,7.52324125 L69.0547945,12.0177778 Z" id="路径"></path>
            </g>
        </g>
    </g>
</svg>