<?xml version="1.0" encoding="UTF-8"?>
<svg width="16px" height="17px" viewBox="0 0 16 17" version="1.1" xmlns="http://www.w3.org/2000/svg" xmlns:xlink="http://www.w3.org/1999/xlink">
    <!-- Generator: Sketch 59.1 (86144) - https://sketch.com -->
    <title>4.icon_Contract</title>
    <desc>Created with Sketch.</desc>
    <g id="PlatScan" stroke="none" stroke-width="1" fill="none" fill-rule="evenodd">
        <g id="04-合约详情-合约字节码-系统合约-合约已销毁0.8" transform="translate(-175.000000, -544.000000)" fill="#FFC017" fill-rule="nonzero">
            <g id="2" transform="translate(0.000000, 408.000000)">
                <g id="警告" transform="translate(160.000000, 125.000000)">
                    <g id="4.icon_Contract" transform="translate(15.000000, 11.000000)">
                        <path d="M3.19277498,1.6449476 L1.64638749,1.6449476 C0.792503152,1.6449476 0.1,2.29869012 0.1,3.10475299 L0.1,15.5148204 C0.1,16.3205838 0.792522849,16.9743076 1.64638749,16.9743076 L14.0174283,16.9743076 C14.8713126,16.9743076 15.5638158,16.3205651 15.5638158,15.5145022 L15.5638158,3.10441617 C15.5638158,2.29867141 14.8713126,1.6449476 14.0174283,1.6449476 L12.4710605,1.6449476 L12.4710605,3.10473428 L13.2442444,3.10473428 C13.6711866,3.10473428 14.0174283,3.43177395 14.0174283,3.83480539 L14.0174283,14.7844311 C14.0161249,15.1888616 13.6699607,15.5157152 13.2442444,15.5144835 L2.41957138,15.5144835 C1.99264891,15.5144835 1.64638749,15.1874626 1.64638749,14.7844311 L1.64638749,3.8348241 C1.64700821,3.64060634 1.72881737,3.45457759 1.87381768,3.31766251 C2.018818,3.18074742 2.21513164,3.10416151 2.41957138,3.10475299 L3.19277498,3.10475299 L3.19277498,1.6449476 Z" id="路径"></path>
                        <path d="M5.6791404,0.00623128743 L10.1165813,0.00623128743 C10.5088954,0.00623128743 10.8850575,0.158888473 11.1623976,0.430351796 C11.4412162,0.705171335 11.5966149,1.07222352 11.5957451,1.45391093 L11.5957451,2.90188997 C11.5966098,3.28357091 11.4412114,3.65061551 11.1623976,3.92543039 C10.8886301,4.19550904 10.5112587,4.34854829 10.1165813,4.3495509 L5.6791404,4.3495509 C4.86224787,4.3495509 4.2,3.70125374 4.2,2.90188997 L4.2,1.45391093 C4.2,0.654547156 4.86224787,0.00623128743 5.6791404,0.00623128743 L5.6791404,0.00623128743 Z M6.41872045,1.45391093 C6.1544792,1.45391093 5.91042783,1.59186003 5.7779625,1.81605539 C5.64591536,2.04097028 5.64591536,2.31481191 5.7779625,2.5397268 C5.90660085,2.76191327 6.15180139,2.90050321 6.41872045,2.90188997 L9.37700126,2.90188997 C9.78544753,2.90188997 10.1165813,2.57773204 10.1165813,2.17790045 C10.1165813,1.77806886 9.78546722,1.45422904 9.37700126,1.45391093 L6.41872045,1.45391093 L6.41872045,1.45391093 Z" id="形状"></path>
                        <path d="M8.46162707,10.000143 L10.9094313,7.56842748 C11.0300936,7.4485582 11.0300936,7.24915752 10.9094313,7.10954845 L10.8892729,7.08952256 C10.7667549,6.97015915 10.5706101,6.97015915 10.4480921,7.08952256 L8,9.5415501 L5.55219582,7.10983453 C5.42960795,6.99009656 5.23302702,6.99009656 5.11043915,7.10983453 L5.09028078,7.12986042 C4.96990641,7.24915752 4.96990641,7.4485582 5.09028078,7.58816728 L7.53837293,10.000143 L5.09056875,12.4318586 C4.9699064,12.5517279 4.9699064,12.7511286 5.09056875,12.8904516 L5.11072713,12.9104774 C5.23324509,13.0298409 5.42938989,13.0298409 5.55190784,12.9104774 L8,10.458736 L10.4478042,12.8904516 C10.570392,13.0101895 10.766973,13.0101895 10.8895608,12.8904516 L10.9097192,12.8704257 C11.0300936,12.7511286 11.0300936,12.5517279 10.9097192,12.4121188 L8.46162707,10.000143 L8.46162707,10.000143 Z" id="路径" stroke="#FFC017"></path>
                    </g>
                </g>
            </g>
        </g>
    </g>
</svg>