<?xml version="1.0" encoding="UTF-8"?>
<svg width="16px" height="16px" viewBox="0 0 16 16" version="1.1" xmlns="http://www.w3.org/2000/svg" xmlns:xlink="http://www.w3.org/1999/xlink">
    <!-- Generator: Sketch 52.2 (67145) - http://www.bohemiancoding.com/sketch -->
    <title>icon 警告</title>
    <desc>Created with Sketch.</desc>
    <g id="icon-警告" stroke="none" stroke-width="1" fill="none" fill-rule="evenodd">
        <g>
            <rect id="矩形" fill="#000000" opacity="0" x="0" y="0" width="16" height="16"></rect>
            <path d="M8,0 C3.58166254,0 0,3.5817521 0,8 C0,12.4182479 3.5817521,16 8,16 C12.4182479,16 16,12.4182479 16,8 C16,3.5817521 12.4183374,0 8,0 Z M7.33305536,3.9999888 C7.33305536,3.63185185 7.63125862,3.3333128 7.99973136,3.3333128 C8.36822649,3.3333128 8.6663402,3.63185183 8.6663402,3.9999888 L8.6663402,8.740572 C8.6663402,9.10870895 8.36822649,9.407248 7.99973136,9.407248 C7.63125862,9.407248 7.33305536,9.10870897 7.33305536,8.740572 L7.33305536,3.9999888 Z M8,11.9999888 C7.48232489,11.9999888 7.06267786,11.5804313 7.06267786,11.0627562 C7.06267786,10.5450811 7.48232489,10.1254341 8,10.1254341 C8.51767511,10.1254341 8.93732214,10.5450811 8.93732214,11.0627562 C8.93732214,11.5803418 8.51767511,11.9999888 8,11.9999888 Z" id="形状" fill="#FFC017" fill-rule="nonzero"></path>
        </g>
    </g>
</svg>