<?xml version="1.0" encoding="UTF-8"?>
<svg width="14px" height="14px" viewBox="0 0 14 14" version="1.1" xmlns="http://www.w3.org/2000/svg" xmlns:xlink="http://www.w3.org/1999/xlink">
    <!-- Generator: Sketch 52.2 (67145) - http://www.bohemiancoding.com/sketch -->
    <title>icon-双签</title>
    <desc>Created with Sketch.</desc>
    <g id="icon-双签" stroke="none" stroke-width="1" fill="none" fill-rule="evenodd">
        <g transform="translate(1.000000, 0.000000)" fill="#CF326E" id="路径">
            <path d="M4.09578947,14 C4.09578947,14 -2.01947368,12.634375 0.713684211,5.85625 C0.713684211,5.85625 1.33421053,6.609375 1.24894737,6.971875 C1.24894737,6.971875 1.73526316,5.2609375 2.78526316,4.2390625 C3.68684211,3.3609375 4.60263158,0.8921875 3.75789474,0 C3.75789474,0 7.94210526,0.8921875 8.40789474,5.3546875 C8.40789474,5.3546875 8.94315789,3.9328125 10.0421053,3.7921875 C10.0421053,3.7921875 9.70421053,4.5734375 10.0421053,5.7453125 C10.0421053,5.7453125 13.5078947,11.76875 7.53473684,13.8046875 C7.53473684,13.8046875 9.32526316,11.740625 5.52789474,8.1984375 C5.52789474,8.1984375 4.63263158,10.0953125 4.09736842,10.7640625 C4.09578947,10.765625 2.60210526,12.465625 4.09578947,14 Z"></path>
        </g>
    </g>
</svg>