<?xml version="1.0" encoding="UTF-8"?>
<svg width="14px" height="14px" viewBox="0 0 14 14" version="1.1" xmlns="http://www.w3.org/2000/svg" xmlns:xlink="http://www.w3.org/1999/xlink">
    <!-- Generator: Sketch 52.2 (67145) - http://www.bohemiancoding.com/sketch -->
    <title>icon 链接</title>
    <desc>Created with Sketch.</desc>
    <g id="icon-链接" stroke="none" stroke-width="1" fill="none" fill-rule="evenodd">
        <g>
            <rect id="矩形" fill="#000000" opacity="0" x="0" y="0" width="14" height="14"></rect>
            <path d="M10.002903,8.22103614 C9.89065712,8.22103614 9.77836926,8.17818319 9.69269135,8.0924913 C9.52127956,7.92126139 9.52127956,7.64329785 9.69269135,7.47203997 L11.4951733,5.66953007 C11.9372316,5.22747179 12.1807784,4.63987018 12.1807784,4.01485794 C12.1807784,3.3898457 11.9372316,2.8022441 11.4951733,2.36032572 C11.053129,1.91812753 10.4655274,1.67474854 9.84050114,1.67474854 L9.84036123,1.67474854 C9.21533501,1.67474854 8.6278733,1.91812753 8.18596892,2.36018582 L6.38331911,4.16269569 C6.21192132,4.33407949 5.93425159,4.33407949 5.76286778,4.16269569 C5.59146999,3.9914378 5.59146999,3.71350224 5.76286778,3.54224436 L7.5653637,1.73974845 C8.17297173,1.1320005 8.98095193,0.797207482 9.84036125,0.797207482 C9.84050115,0.797207482 9.84036125,0.797207482 9.84050115,0.797207482 C10.6999105,0.797207482 11.5079047,1.13200049 12.1156246,1.73974845 C12.7235125,2.3473425 13.0583055,3.15547658 13.0583055,4.01487192 C13.0583055,4.87428123 12.7235125,5.68240133 12.1156246,6.29013529 L10.3131007,8.09250529 C10.2274228,8.17818319 10.1151629,8.22103614 10.002903,8.22103614 Z M4.09980133,12.973502 C3.24026609,12.973502 2.43213201,12.6387369 1.82438406,12.0308491 C0.570050496,10.7763616 0.570050496,8.73503364 1.82438406,7.48030835 L3.62732766,5.67778446 C3.79872545,5.50640066 4.076675,5.50640066 4.24777899,5.67778446 C4.41916279,5.84918225 4.41916279,6.12697791 4.24777899,6.29823579 L2.4449893,8.10075968 C1.5327378,9.01329099 1.5327378,10.4979924 2.4449893,11.4103838 C2.88704758,11.852442 3.47464919,12.0959749 4.09980133,12.0959749 C4.72498146,12.0959749 5.31256908,11.852442 5.75447346,11.4103838 L7.55713725,9.60788784 C7.72853504,9.43650404 8.0061768,9.43650404 8.17758858,9.60788784 C8.34898637,9.77915971 8.34898637,10.0570813 8.17758858,10.2283252 L6.37507868,12.0308631 C5.76747065,12.6387369 4.95933657,12.973502 4.09980133,12.973502 Z M4.3268394,9.96731816 C4.21456552,9.96731816 4.10230563,9.92446521 4.01659974,9.83877331 C3.84521594,9.66738951 3.84521594,9.38959386 4.01659974,9.21832198 L8.72513536,4.51009416 C8.89651916,4.33871036 9.17417491,4.33871036 9.3455727,4.51009416 C9.51697049,4.68149195 9.51697049,4.95930159 9.3455727,5.13055949 L4.63706507,9.83877333 C4.55134519,9.92446521 4.4390853,9.96731816 4.3268394,9.96731816 Z" id="形状" fill="#0798DE" fill-rule="nonzero"></path>
        </g>
    </g>
</svg>