<?xml version="1.0" encoding="UTF-8"?>
<svg width="15px" height="15px" viewBox="0 0 15 15" version="1.1" xmlns="http://www.w3.org/2000/svg" xmlns:xlink="http://www.w3.org/1999/xlink">
    <!-- Generator: Sketch 52.2 (67145) - http://www.bohemiancoding.com/sketch -->
    <title>icon 二维码</title>
    <desc>Created with Sketch.</desc>
    <g id="icon-二维码" stroke="none" stroke-width="1" fill="none" fill-rule="evenodd">
        <g fill="#000000">
            <rect id="矩形" opacity="0" x="0" y="0" width="15" height="15"></rect>
            <path d="M5.390625,8.203125 L2.578125,8.203125 C1.8046875,8.203125 1.171875,8.8359375 1.171875,9.609375 L1.171875,12.421875 C1.171875,13.1953125 1.8046875,13.828125 2.578125,13.828125 L5.390625,13.828125 C6.1640625,13.828125 6.796875,13.1953125 6.796875,12.421875 L6.796875,9.609375 C6.796875,8.8359375 6.1640625,8.203125 5.390625,8.203125 Z M5.859375,12.421875 C5.859375,12.6796875 5.6484375,12.890625 5.390625,12.890625 L2.578125,12.890625 C2.3203125,12.890625 2.109375,12.6796875 2.109375,12.421875 L2.109375,9.609375 C2.109375,9.3515625 2.3203125,9.140625 2.578125,9.140625 L5.390625,9.140625 C5.6484375,9.140625 5.859375,9.3515625 5.859375,9.609375 L5.859375,12.421875 Z M5.390625,1.171875 L2.578125,1.171875 C1.8046875,1.171875 1.171875,1.8046875 1.171875,2.578125 L1.171875,5.390625 C1.171875,6.1640625 1.8046875,6.796875 2.578125,6.796875 L5.390625,6.796875 C6.1640625,6.796875 6.796875,6.1640625 6.796875,5.390625 L6.796875,2.578125 C6.796875,1.8046875 6.1640625,1.171875 5.390625,1.171875 Z M5.859375,5.390625 C5.859375,5.6484375 5.6484375,5.859375 5.390625,5.859375 L2.578125,5.859375 C2.3203125,5.859375 2.109375,5.6484375 2.109375,5.390625 L2.109375,2.578125 C2.109375,2.3203125 2.3203125,2.109375 2.578125,2.109375 L5.390625,2.109375 C5.6484375,2.109375 5.859375,2.3203125 5.859375,2.578125 L5.859375,5.390625 Z M13.125,8.203125 C12.8671875,8.203125 12.65625,8.4140625 12.65625,8.671875 L12.65625,13.359375 C12.65625,13.6171875 12.8671875,13.828125 13.125,13.828125 C13.3828125,13.828125 13.59375,13.6171875 13.59375,13.359375 L13.59375,8.671875 C13.59375,8.4140625 13.3828125,8.203125 13.125,8.203125 Z M12.421875,1.171875 L9.609375,1.171875 C8.8359375,1.171875 8.203125,1.8046875 8.203125,2.578125 L8.203125,5.390625 C8.203125,6.1640625 8.8359375,6.796875 9.609375,6.796875 L12.421875,6.796875 C13.1953125,6.796875 13.828125,6.1640625 13.828125,5.390625 L13.828125,2.578125 C13.828125,1.8046875 13.1953125,1.171875 12.421875,1.171875 Z M12.890625,5.390625 C12.890625,5.6484375 12.6796875,5.859375 12.421875,5.859375 L9.609375,5.859375 C9.3515625,5.859375 9.140625,5.6484375 9.140625,5.390625 L9.140625,2.578125 C9.140625,2.3203125 9.3515625,2.109375 9.609375,2.109375 L12.421875,2.109375 C12.6796875,2.109375 12.890625,2.3203125 12.890625,2.578125 L12.890625,5.390625 Z M8.90625,8.90625 C8.6484375,8.90625 8.4375,9.1171875 8.4375,9.375 L8.4375,13.359375 C8.4375,13.6171875 8.6484375,13.828125 8.90625,13.828125 C9.1640625,13.828125 9.375,13.6171875 9.375,13.359375 L9.375,9.375 C9.375,9.1171875 9.1640625,8.90625 8.90625,8.90625 Z M11.015625,10.3125 C10.7578125,10.3125 10.546875,10.5234375 10.546875,10.78125 L10.546875,13.359375 C10.546875,13.6171875 10.7578125,13.828125 11.015625,13.828125 C11.2734375,13.828125 11.484375,13.6171875 11.484375,13.359375 L11.484375,10.78125 C11.484375,10.5234375 11.2734375,10.3125 11.015625,10.3125 Z" id="形状" fill-rule="nonzero"></path>
        </g>
    </g>
</svg>