<?xml version="1.0" encoding="UTF-8"?>
<svg width="16px" height="16px" viewBox="0 0 16 16" version="1.1" xmlns="http://www.w3.org/2000/svg" xmlns:xlink="http://www.w3.org/1999/xlink">
    <!-- Generator: Sketch 52.2 (67145) - http://www.bohemiancoding.com/sketch -->
    <title>icon 成功</title>
    <desc>Created with Sketch.</desc>
    <g id="icon-成功" stroke="none" stroke-width="1" fill="none" fill-rule="evenodd">
        <g>
            <rect id="矩形" fill="#000000" opacity="0" x="0" y="0" width="16" height="16"></rect>
            <path d="M8.00016316,6.79305549e-16 C3.58177053,6.79305549e-16 0,3.58160737 0,8.00008158 C0,12.4181479 3.58177053,16.0000816 8,16.0000816 C12.4182295,16.0000816 16,12.4181479 16,8.00008158 C16,3.58160737 12.4182295,0 8.00008158,0 L8.00016316,6.79305549e-16 Z M12.2883511,5.88825323 L7.31047001,10.8660528 C7.21048033,10.9660882 7.07483774,11.0222914 6.9333986,11.0222914 C6.79195946,11.0222914 6.65631687,10.9660882 6.55632718,10.8660528 L4.06742742,8.377153 C3.96741196,8.27715269 3.91122259,8.14151408 3.91122259,8.00008158 C3.91122259,7.85864908 3.96741196,7.72301047 4.06742742,7.62301017 C4.16744165,7.52298975 4.30309377,7.46679834 4.44453962,7.46679834 C4.58598548,7.46679834 4.7216376,7.52298975 4.82165183,7.62301017 L6.93348018,9.73475694 L11.5341267,5.13402882 C11.7424,4.9257555 12.0800778,4.9257555 12.2883511,5.13402882 C12.4966244,5.34230214 12.4966244,5.67997991 12.2883511,5.88825323 Z" id="形状" fill="#3BB012" fill-rule="nonzero"></path>
        </g>
    </g>
</svg>