<?xml version="1.0" encoding="UTF-8"?>
<svg width="16px" height="16px" viewBox="0 0 16 16" version="1.1" xmlns="http://www.w3.org/2000/svg" xmlns:xlink="http://www.w3.org/1999/xlink">
    <!-- Generator: Sketch 52.2 (67145) - http://www.bohemiancoding.com/sketch -->
    <title>icon 复制</title>
    <desc>Created with Sketch.</desc>
    <g id="icon-复制" stroke="none" stroke-width="1" fill="none" fill-rule="evenodd">
        <g>
            <rect id="矩形" fill="#000000" opacity="0" x="0" y="0" width="16" height="16"></rect>
            <g id="分组" fill="#0798DE">
                <path d="M10.2857143,4.95238095 L1.14285714,4.95238095 C0.722068759,4.95238095 0.380952375,5.29349733 0.380952375,5.71428571 L0.380952375,14.8571429 C0.380952375,15.2779312 0.722068759,15.6190476 1.14285714,15.6190476 L10.2857143,15.6190476 C10.7065027,15.6190476 11.0476191,15.2779312 11.0476191,14.8571429 L11.0476191,5.71428571 C11.0476191,5.29349733 10.7065027,4.95238095 10.2857143,4.95238095 Z M9.52380952,14.0952381 L1.90476191,14.0952381 L1.90476191,6.47619048 L9.52380952,6.47619048 L9.52380952,14.0952381 Z" id="形状" fill-rule="nonzero"></path>
                <path d="M14.8571429,0.380952375 L5.71428571,0.380952375 C5.29349733,0.380952375 4.95238095,0.722068759 4.95238095,1.14285714 L4.95238095,3.42857143 L6.47619048,3.42857143 L6.47619048,1.90476191 L14.0952381,1.90476191 L14.0952381,9.52380952 L12.5714286,9.52380952 L12.5714286,11.0476191 L14.8571429,11.0476191 C15.2779312,11.0476191 15.6190476,10.7065027 15.6190476,10.2857143 L15.6190476,1.14285714 C15.6190476,0.722068759 15.2779312,0.380952375 14.8571429,0.380952375 Z" id="路径"></path>
            </g>
        </g>
    </g>
</svg>