<?xml version="1.0" encoding="UTF-8"?>
<svg width="48px" height="49px" viewBox="0 0 48 49" version="1.1" xmlns="http://www.w3.org/2000/svg" xmlns:xlink="http://www.w3.org/1999/xlink">
    <!-- Generator: Sketch 52.2 (67145) - http://www.bohemiancoding.com/sketch -->
    <title>首页 正十二面体 4</title>
    <desc>Created with Sketch.</desc>
    <g id="Page-1" stroke="none" stroke-width="1" fill="none" fill-rule="evenodd" opacity="0.5" stroke-linejoin="round">
        <g id="0-首页-" transform="translate(-76.000000, -692.000000)" stroke-width="0.5">
            <g id="首页-正十二面体-4" transform="translate(100.148202, 716.185143) rotate(-18.000000) translate(-100.148202, -716.185143) translate(76.648202, 694.185143)">
                <polygon id="路径-9" stroke="#4E4E4E" points="9.22959516 4.0155247 23.7563776 6.88050847 23.7563776 22.1137889 9.51513732 30.5717941 0 19.2920147 9.51513732 30.5717941 14.1440419 44 9.51513732 30.5717941 23.7563776 22.1137889 37.421231 30.6793889 33.30178 43.9997603 37.421231 30.6793889 47 19.1979569 37.421231 30.6793889 23.7563776 22.1137889 23.7563776 6.88050847 38.1886131 4 23.7563776 6.88050847"></polygon>
                <polygon id="路径-8" stroke="#FFFFFF" points="14.2931161 0 9.22779426 2.82556197 0 18.5305541 0 24.967378 9.56396163 13.8997386 0 24.967378 9.56396163 41.4065401 23.7719854 37.5429842 9.56396163 41.4065401 14.2931161 44 33.183121 44 37.6239319 41.4065401 23.7719854 37.5429842 37.6239319 41.4065401 47 24.967378 37.6239319 13.8997386 47 24.967378 47 18.5305541 38.2152263 2.82556197 33.183121 0 37.6239319 13.8997386 33.183121 0 14.2931161 0 9.56396163 13.8997386 23.7719854 21.4825 37.6239319 13.8997386 23.7719854 21.4825 23.7719854 37.5429842 23.7719854 21.4825 9.56396163 13.8997386"></polygon>
            </g>
        </g>
    </g>
</svg>