<?xml version="1.0" encoding="UTF-8"?>
<svg width="43px" height="45px" viewBox="0 0 43 45" version="1.1" xmlns="http://www.w3.org/2000/svg" xmlns:xlink="http://www.w3.org/1999/xlink">
    <!-- Generator: Sketch 52.2 (67145) - http://www.bohemiancoding.com/sketch -->
    <title>logo-platscan-图</title>
    <desc>Created with Sketch.</desc>
    <g id="logo-platscan-图" stroke="none" stroke-width="1" fill="none" fill-rule="evenodd">
        <g transform="translate(1.000000, 1.000000)">
            <path d="M34.4142136,5.91911977 C34.7761424,6.28104858 35,6.78104858 35,7.33333333 L35,35.3333333 C35,36.4379028 34.1045695,37.3333333 33,37.3333333 L7,37.3333333 C6.44771525,37.3333333 5.94771525,37.1094757 5.58578644,36.7475469 C5.22385763,36.3856181 5,35.8856181 5,35.3333333 L5,32 L10,32 L10,37.3333333 L7,37.3333333 C6.44771525,37.3333333 5.94771525,37.1094757 5.58578644,36.7475469 C5.22385763,36.3856181 5,35.8856181 5,35.3333333 L5,7.33333333 C5,6.22876383 5.8954305,5.33333333 7,5.33333333 L33,5.33333333 C33.5522847,5.33333333 34.0522847,5.55719096 34.4142136,5.91911977 C34.0522847,5.55719096 33.5522847,5.33333333 33,5.33333333 L30,5.33333333 L30,10.6666667 L35,10.6666667 L35,7.33333333 C35,6.78104858 34.7761424,6.28104858 34.4142136,5.91911977 Z M10,10.6666667 L10,32 L30,32 L30,10.6666667 L10,10.6666667 Z" id="Combined-Shape" fill="#FFFFFF"></path>
            <path d="M17,16 L23,16 C24.1045695,16 25,16.8954305 25,18 L25,24.6666667 C25,25.7712362 24.1045695,26.6666667 23,26.6666667 L17,26.6666667 C15.8954305,26.6666667 15,25.7712362 15,24.6666667 L15,18 C15,16.8954305 15.8954305,16 17,16 Z" id="Path" fill="#ECB82C"></path>
            <path d="M37,0 L40,0 C40.5522847,-1.01453063e-16 41,0.44771525 41,1 L41,4.33333333 C41,4.88561808 40.5522847,5.33333333 40,5.33333333 L37,5.33333333 C36.4477153,5.33333333 36,4.88561808 36,4.33333333 L36,1 C36,0.44771525 36.4477153,1.01453063e-16 37,0 Z" id="Path" fill="#66B7DE"></path>
            <path d="M1,37.3333333 L4,37.3333333 C4.55228475,37.3333333 5,37.7810486 5,38.3333333 L5,41.6666667 C5,42.2189514 4.55228475,42.6666667 4,42.6666667 L1,42.6666667 C0.44771525,42.6666667 6.76353751e-17,42.2189514 0,41.6666667 L0,38.3333333 C-6.76353751e-17,37.7810486 0.44771525,37.3333333 1,37.3333333 Z" id="Path" fill="#CF326E"></path>
        </g>
    </g>
</svg>