<?xml version="1.0" encoding="UTF-8"?>
<svg width="36px" height="36px" viewBox="0 0 36 36" version="1.1" xmlns="http://www.w3.org/2000/svg" xmlns:xlink="http://www.w3.org/1999/xlink">
    <title>1.icon_menu</title>
    <g id="手机端-英文版" stroke="none" stroke-width="1" fill="none" fill-rule="evenodd">
        <g id="44.-治理详情-取消提案" transform="translate(-674.000000, -47.000000)" fill="#FEFEFE" fill-rule="nonzero">
            <g id="分组">
                <g id="编组">
                    <g id="1.icon_menu" transform="translate(674.000000, 47.000000)">
                        <path d="M1.74184614,20.0769231 C0.780923078,20.0769231 0,19.1464615 0,18 C0,16.8535385 0.780923078,15.9230769 1.74184614,15.9230769 L34.2581539,15.9230769 C35.2190769,15.9230769 36,16.8535385 36,18 C36,19.1464615 35.2190769,20.0769231 34.2581539,20.0769231 L1.74184614,20.0769231 Z M1.74184614,4.15384616 C0.780923078,4.15384616 0,3.22338462 0,2.07692308 C0,0.930461539 0.780923078,0 1.74184614,0 L34.2581539,0 C35.2190769,0 36,0.930461539 36,2.07692308 C36,3.22338462 35.2190769,4.15384616 34.2581539,4.15384616 L1.74184614,4.15384616 Z M1.74184614,36 C0.780923078,36 0,35.0695385 0,33.9230769 C0,32.7766154 0.780923078,31.8461538 1.74184614,31.8461538 L34.2581539,31.8461538 C35.2190769,31.8461538 36,32.7766154 36,33.9230769 C36,35.0695385 35.2190769,36 34.2581539,36 L1.74184614,36 L1.74184614,36 Z" id="形状"></path>
                    </g>
                </g>
            </g>
        </g>
    </g>
</svg>