<?xml version="1.0" encoding="UTF-8"?>
<svg width="499px" height="50px" viewBox="0 0 499 50" version="1.1" xmlns="http://www.w3.org/2000/svg" xmlns:xlink="http://www.w3.org/1999/xlink">
    <!-- Generator: Sketch 52.2 (67145) - http://www.bohemiancoding.com/sketch -->
    <title>footer-链接-n</title>
    <desc>Created with Sketch.</desc>
    <g id="footer-链接-n" stroke="none" stroke-width="1" fill="none" fill-rule="evenodd">
        <g id="icon-Rabbit" transform="translate(160.000000, 10.000000)">
            <circle id="Oval-Copy-5" stroke="#555555" stroke-width="0.5" cx="15" cy="15" r="15"></circle>
            <path d="M10.5708571,16.1422857 C10.5708571,15.5108572 11.0822857,14.9994286 11.7137143,14.9994286 C12.3451428,14.9994286 12.8565714,15.5108572 12.8565714,16.1422857 C12.8565714,16.7737143 12.3451428,17.2851429 11.7137143,17.2851429 C11.0822857,17.2851429 10.5708571,16.7737143 10.5708571,16.1422857 Z M17.428,16.1422857 C17.428,15.5108572 17.9394286,14.9994286 18.5708571,14.9994286 C19.2022857,14.9994286 19.7137143,15.5108572 19.7137143,16.1422857 C19.7137143,16.7737143 19.2022857,17.2851429 18.5708571,17.2851429 C17.9394286,17.2851429 17.428,16.7737143 17.428,16.1422857 Z M17.4834286,18.5845714 C17.7777143,18.3525714 18.2045714,18.4034286 18.4365714,18.6977143 C18.6685714,18.992 18.6177143,19.4188572 18.3234286,19.6508572 C17.504,20.2965714 16.2554286,20.7137143 15.1422857,20.7137143 C14.0291429,20.7137143 12.7805714,20.2965714 11.9611429,19.6508572 C11.6668571,19.4188572 11.616,18.992 11.848,18.6977143 C12.08,18.4034286 12.5068571,18.3525714 12.8011429,18.5845714 C13.2731429,18.9565714 14.2068571,19.3565714 15.1422857,19.3565714 C16.0777143,19.3565714 17.0114286,18.9565714 17.4834286,18.5845714 Z M24.2851429,13.8565714 C24.2851429,12.5942857 23.2617143,11.5708571 21.9994286,11.5708571 C21.14,11.5708571 20.3925714,12.0451429 20.0022857,12.7462857 C18.8274286,12.1034286 17.396,11.6885714 15.8365714,11.5925714 L17.2005714,8.52971429 L19.8114286,9.28342857 C20.0462857,9.95028571 20.6811429,10.4285714 21.4285714,10.4285714 C22.3754286,10.4285714 23.1428571,9.66114286 23.1428571,8.71428571 C23.1428571,7.76742857 22.3754286,7 21.4285714,7 C20.776,7 20.208,7.36514286 19.9188571,7.90228571 L17.0097143,7.06228571 C16.684,6.96857143 16.3394286,7.12857143 16.2017143,7.43828571 L14.3485714,11.5994286 C12.828,11.7062857 11.4331429,12.1177143 10.2834286,12.7462857 C9.89314286,12.0451429 9.14457143,11.5714286 8.28571429,11.5714286 C7.02342857,11.5714286 6,12.5948571 6,13.8571429 C6,14.7914286 6.56057143,15.5937143 7.364,15.948 C7.22,16.3771429 7.14285714,16.8251429 7.14285714,17.2857143 C7.14285714,20.4417143 10.7245714,23 15.1428571,23 C19.5611429,23 23.1428571,20.4417143 23.1428571,17.2857143 C23.1428571,16.8251429 23.0662857,16.3777143 22.9217143,15.9485714 C23.7245714,15.5942857 24.2857143,14.7914286 24.2857143,13.8571429 L24.2851429,13.8565714 Z M21.428,8.07085714 C21.7828571,8.07085714 22.0708571,8.35885714 22.0708571,8.71371429 C22.0708571,9.06857143 21.7828571,9.35657143 21.428,9.35657143 C21.0731429,9.35657143 20.7851429,9.06857143 20.7851429,8.71371429 C20.7851429,8.35885714 21.0731429,8.07085714 21.428,8.07085714 Z M7.1422857,13.8565714 C7.1422857,13.2262857 7.65485712,12.7137143 8.28514284,12.7137143 C8.74057141,12.7137143 9.13485712,12.9817143 9.3182857,13.368 C8.72114284,13.8211429 8.2262857,14.3434286 7.85999998,14.9171429 C7.43999998,14.748 7.1422857,14.3365714 7.1422857,13.8565714 Z M15.1422857,21.6422857 C11.4737143,21.6422857 8.49942855,19.6914286 8.49942855,17.2851429 C8.49942855,14.8788572 11.4737143,12.928 15.1422857,12.928 C18.8108571,12.928 21.7851428,14.8788572 21.7851428,17.2851429 C21.7851428,19.6914286 18.8108571,21.6422857 15.1422857,21.6422857 Z M22.4245714,14.9171429 C22.0582857,14.344 21.5634286,13.8211429 20.9662857,13.368 C21.1497143,12.9817143 21.544,12.7137143 21.9994286,12.7137143 C22.6297143,12.7137143 23.1422857,13.2262857 23.1422857,13.8565714 C23.1422857,14.3365714 22.8451429,14.748 22.4245714,14.9171429 Z" id="Shape" fill="#777777" fill-rule="nonzero"></path>
        </g>
        <g id="icon-WeChat" transform="translate(60.000000, 10.000000)">
            <circle id="Oval-Copy" stroke="#555555" stroke-width="0.5" cx="15" cy="15" r="15"></circle>
            <path d="M18.6047562,12.2359117 C18.8014363,12.2359117 18.9960155,12.2503811 19.1890436,12.2719178 C18.6640528,9.82099849 16.0504866,8 13.0672591,8 C9.73204158,8 7,10.2792552 7,13.1734894 C7,14.8441045 7.9089265,16.2160004 9.42782255,17.2800623 L8.82099454,19.1099787 L10.9419867,18.0436135 C11.7009438,18.1942134 12.3098531,18.3490852 13.0672395,18.3490852 C13.2576365,18.3490852 13.4464236,18.3396357 13.6336398,18.3248907 C13.5151055,17.9181924 13.4464236,17.4922211 13.4464236,17.050245 C13.4464432,14.3926593 15.722706,12.235892 18.6047562,12.235892 L18.6047562,12.2359117 Z M15.3424617,10.586597 C15.7993203,10.586597 16.101949,10.8879149 16.101949,11.3456794 C16.101949,11.8016131 15.7993203,12.1071242 15.3424813,12.1071242 C14.8877432,12.1071242 14.4314343,11.8015935 14.4314343,11.3456597 C14.4314343,10.8879149 14.8877432,10.586597 15.3424813,10.586597 L15.3424617,10.586597 Z M11.0962167,12.1071045 C10.6415375,12.1071045 10.1825975,11.8015738 10.1825975,11.3456401 C10.1825975,10.8878952 10.6415178,10.5865773 11.0962167,10.5865773 C11.5509548,10.5865773 11.8536031,10.8878952 11.8536031,11.3456597 C11.8536031,11.8015935 11.5509352,12.1070848 11.0962167,12.1070848 L11.0962167,12.1071045 Z M24.1422925,16.9771499 C24.1422925,14.5451097 21.7149216,12.5627035 18.9886918,12.5627035 C16.1019293,12.5627035 13.8283172,14.5451097 13.8283172,16.9771499 C13.8283172,19.4133636 16.101949,21.3915765 18.9886918,21.3915765 C19.5929084,21.3915765 20.2023282,21.2388112 20.8091562,21.0863214 L22.4733486,22 L22.0170397,20.4798272 C23.2348975,19.5637666 24.1422925,18.3490458 24.1422925,16.9771499 Z M17.3155657,16.2159807 C17.0134672,16.2159807 16.7087181,15.9146432 16.7087181,15.6073014 C16.7087181,15.304192 17.0134476,14.9989566 17.3155657,14.9989566 C17.774486,14.9989566 18.0750334,15.3042117 18.0750334,15.6073014 C18.0750334,15.9146432 17.774486,16.2159807 17.3155657,16.2159807 Z M20.6528645,16.2159807 C20.3528473,16.2159807 20.0502187,15.9146432 20.0502187,15.6073014 C20.0502187,15.304192 20.3528473,14.9989566 20.6528842,14.9989566 C21.1076027,14.9989566 21.4122929,15.3042117 21.4122929,15.6073014 C21.4123126,15.9146432 21.1076223,16.2159807 20.6528842,16.2159807 L20.6528645,16.2159807 Z" id="Shape" fill="#777777" fill-rule="nonzero"></path>
        </g>
        <g id="icon-Medium" transform="translate(210.000000, 10.000000)">
            <circle id="Oval-Copy-4" stroke="#555555" stroke-width="0.5" cx="15" cy="15" r="15"></circle>
            <path d="M23.6662253,19.9362701 L23.6662253,22 L17.336217,22 L17.336217,19.9362701 L18.6574927,19.9362701 L18.6574927,10.7941867 L18.5981804,10.7941867 L15.5025842,22 L13.1073777,22 L10.0509024,10.7941867 L9.97266072,10.7941867 L9.97266072,19.9362701 L11.3040321,19.9362701 L11.3040321,22 L6,22 L6,19.9362701 L6.68019826,19.9362701 C6.81817293,19.9362701 6.95951283,19.8722393 7.10421795,19.7441776 C7.24892308,19.616116 7.32127565,19.4926882 7.32127565,19.3738942 L7.32127565,10.6753927 C7.32127565,10.5565987 7.24892308,10.425167 7.10421795,10.2810977 C6.95951283,10.1370283 6.81817293,10.0645724 6.68019826,10.0637299 L6,10.0637299 L6,8 L12.6253077,8 L14.8047185,16.1057953 L14.8640307,16.1057953 L17.0623709,8 L23.6674873,8 L23.6674873,10.0637299 L22.9670976,10.0637299 C22.8425839,10.0637299 22.7079744,10.1361858 22.5632693,10.2810977 C22.4185642,10.4260095 22.3462116,10.5574412 22.3462116,10.6753927 L22.3462116,19.3738942 C22.3462116,19.4926882 22.4168816,19.616116 22.5582215,19.7441776 C22.6995614,19.8722393 22.8358534,19.9362701 22.9670976,19.9362701 L23.6674873,19.9362701 L23.6662253,19.9362701 Z" id="Shape" fill="#777777" fill-rule="nonzero"></path>
        </g>
        <g id="icon-Twitter" transform="translate(110.000000, 10.000000)">
            <circle id="Oval-Copy-2" stroke="#555555" stroke-width="0.5" cx="15" cy="15" r="15"></circle>
            <path d="M23.8641815,8.26638103 C23.8641815,8.26638103 22.2699463,9.17521044 21.5867026,9.17521044 C20.1063413,6.90313692 14.6403919,7.92557001 15.5513834,12.2425097 C10.8825516,12.3561134 8.26345087,8.72079574 8.26345087,8.72079574 C8.26345087,8.72079574 6.66921562,11.3336803 9.28831639,13.3785465 C8.71894666,13.4921501 7.80795508,13.1513391 7.80795508,13.1513391 C7.80795508,13.1513391 7.3524593,15.4234126 10.5409298,16.4458457 C10.199308,16.9002604 8.94669455,16.5594494 8.94669455,16.5594494 C8.94669455,16.5594494 9.28831639,18.4907119 12.1351651,19.0587303 C10.199308,20.8763891 6.78308956,20.3083707 7.01083746,20.5355781 C9.85768612,23.0348589 22.3838202,23.6028773 22.4976942,11.6744913 C23.1809379,11.447284 24.3196773,9.74322882 24.3196773,9.74322882 C24.3196773,9.74322882 22.4976942,10.3112472 22.3838202,10.1976435 C23.7503076,9.40241779 23.8641815,8.26638103 23.8641815,8.26638103" id="Shape" fill="#777777" fill-rule="nonzero"></path>
        </g>
        <g id="icon-GitHub" transform="translate(260.000000, 10.000000)">
            <circle id="Oval-Copy-3" stroke="#555555" stroke-width="0.5" cx="15" cy="15" r="15"></circle>
            <path d="M21.2803097,9.72755208 C21.9153294,8.54586058 21.1895926,7 21.1895926,7 C19.5566848,7 18.3767919,8.09079215 18.3767919,8.09079215 C17.7417722,7.72719477 15.6547083,7.72719477 15.6547083,7.72719477 C15.6547083,7.72719477 13.5676444,7.72719477 12.9326247,8.09079215 C12.9326247,8.09079215 11.7533024,7 10.119824,7 C10.119824,7 9.39408718,8.54528888 10.0291069,9.72755208 C10.0291069,9.72755208 8.57763326,11.0910423 9.12193588,14.000393 C9.63371726,16.7342338 12.0254537,17.4551399 13.5676444,17.4551399 C13.5676444,17.4551399 12.9326247,18.000536 13.0233418,18.9095294 C13.0233418,18.9095294 12.1161708,19.4549255 11.2089998,19.0913281 C10.3018287,18.7277307 9.84824324,17.8187373 9.84824324,17.8187373 C9.84824324,17.8187373 8.94107222,16.6370458 8.0339012,17.0915425 C8.0339012,17.0915425 7.76174989,17.3642405 8.75963802,17.8187373 C8.75963802,17.8187373 9.48537483,18.9095294 9.75752614,19.5458248 C10.0296774,20.1821203 11.4811511,20.7275163 12.9331953,20.363919 L12.9331953,22.4546039 C12.9331953,22.4546039 12.9331953,22.6364026 12.5703268,22.727302 C12.2074584,22.8182013 12.2074584,23 12.3888926,23 L18.9216651,23 C19.1030993,23 19.1030993,22.8182013 18.7402309,22.727302 C18.3773625,22.6364026 18.3773625,22.4546039 18.3773625,22.4546039 L18.3773625,20.363919 C18.3773625,20.363919 18.3853501,19.2736985 18.3773625,18.9095294 C18.3573933,17.9959624 17.7423428,17.4551399 17.7423428,17.4551399 C19.2845335,17.4551399 21.6762699,16.7342338 22.1880513,14.000393 C22.7323539,11.0910423 21.2808803,9.72755208 21.2808803,9.72755208 L21.2803097,9.72755208 Z" id="Shape" fill="#777777" fill-rule="nonzero"></path>
        </g>
        <g id="icon-Facebook" transform="translate(310.000000, 10.000000)">
            <circle id="Oval-Copy-6" stroke="#555555" stroke-width="0.5" cx="15" cy="15" r="15"></circle>
            <path d="M11.6224277,11.951707 L11.6224277,22.2377893 L8.19728802,22.2377893 L8.19728802,11.951707 L11.6224277,11.951707 Z M11.8403165,8.77499635 C11.8474253,9.2803092 11.6727071,9.7023522 11.3161618,10.0411599 C10.9596511,10.3799677 10.4908486,10.5495786 9.90982336,10.5500272 L9.88925607,10.5500272 C9.32193086,10.5500272 8.86513744,10.3803818 8.51880679,10.0411599 C8.17247614,9.70193812 7.99951786,9.27989508 8.00000101,8.77499635 C8.00000101,8.26305782 8.17823915,7.83922033 8.53474989,7.50351839 C8.89126063,7.16781645 9.35671577,7 9.93111531,7 C10.5055148,7 10.9656556,7.16785095 11.3115376,7.50351839 C11.6574196,7.83918583 11.8338978,8.26305779 11.8409722,8.77499635 L11.8403165,8.77499635 Z M23.9432889,16.3421277 L23.9432889,22.2378584 L20.5281223,22.2378584 L20.5281223,16.7367018 C20.5281223,16.0099457 20.3879474,15.4408606 20.1076321,15.0294463 C19.8272824,14.618032 19.3895378,14.4120832 18.7942949,14.4116691 C18.3584829,14.4116691 17.9935865,14.5310352 17.6995022,14.7697328 C17.405418,15.0084304 17.1857692,15.3042746 17.0405216,15.6572309 C16.9643261,15.8649396 16.9262628,16.1452894 16.9262628,16.4982457 L16.9262628,22.238514 L13.5110616,22.238514 C13.5247962,19.4776348 13.5316289,17.2391849 13.5316289,15.5230606 C13.5316289,13.8069364 13.5280745,12.7828177 13.5210002,12.4506702 L13.5103715,11.9524316 L16.9255726,11.9524316 L16.9255726,13.4471127 L16.9050054,13.4471127 C17.0436274,13.2256696 17.1855622,13.031937 17.3308444,12.8658459 C17.476092,12.6997549 17.6716191,12.5199639 17.9174255,12.3264384 C18.1632319,12.1329129 18.464149,11.9823163 18.8202111,11.8747178 C19.1762732,11.7670847 19.5724001,11.7134925 20.0086263,11.7139756 C21.1920032,11.7139756 22.1434807,12.1065826 22.8631279,12.8917966 C23.5827751,13.6770106 23.9426332,14.8273625 23.9426332,16.3428524 L23.9432889,16.3421277 Z" id="形状" fill="#777777" fill-rule="nonzero"></path>
        </g>
        <g id="icon-Facebook-Copy" transform="translate(360.000000, 10.000000)">
            <circle id="Oval-Copy-6" stroke="#555555" stroke-width="0.5" cx="15" cy="15" r="15"></circle>
            <path d="M16.8109012,9.948 C17.2149229,9.948 17.765572,10.0208 18.2110319,10.1144 C18.3146272,10.1352 18.429379,10.1144 18.5226148,10.052 C18.6144445,9.99039108 18.6749653,9.89166067 18.6883673,9.78159999 L18.9688716,7.74959999 C18.9913092,7.55219748 18.8682849,7.36744763 18.6780078,7.3128 C17.9520436,7.104 17.1639222,7 16.3431284,7 C13.8648093,7 12.6607128,8.1872 12.6607128,10.6456 L12.6607128,11.7184 L11.3944591,11.7184 C11.1766054,11.7184 11,11.8956952 11,12.1144 L11,14.1976 C11,14.4272 11.1761121,14.604 11.3944591,14.604 L12.659916,14.604 L12.659916,22.604 C12.659916,22.8232 12.8368249,23 13.0543751,23 L15.6482428,23 C15.8554335,23 16.0323424,22.8232 16.0323424,22.604 L16.0323424,14.604 L18.1281556,14.604 C18.3353463,14.604 18.5026926,14.4376 18.5226148,14.2288 L18.6676482,12.1456 C18.6763716,12.0349818 18.6388382,11.9257097 18.5640529,11.844 C18.4932337,11.7635823 18.391265,11.7177942 18.2843455,11.7184 L16.0323424,11.7184 L16.0323424,10.8024 C16.0323424,10.1144 16.1048591,9.948 16.8109012,9.948 Z" id="Shape" fill="#777777" fill-rule="nonzero"></path>
        </g>
        <g id="icon-Telegram" transform="translate(10.000000, 10.000000)">
            <circle id="Oval" stroke="#555555" stroke-width="0.5" cx="15" cy="15" r="15"></circle>
            <path d="M21.1226156,21.1423343 L23.6444597,9.27486239 C23.7741289,8.90769783 23.7058255,8.49965061 23.4636551,8.19472862 C23.220531,7.97931918 22.8687895,7.93858943 22.5828725,8.0927388 L7.78096869,13.780798 C7.52104563,13.8593697 7.28718898,14.0067281 7.1041331,14.2072875 C6.98292449,14.3327629 6.96555518,14.5257523 7.06241147,14.6708539 C7.19928688,14.8435924 7.39322034,14.9619227 7.60943739,15.0046269 L11.396832,16.1867342 L20.2047398,10.651676 C20.44578,10.4940628 20.6265846,10.4569697 20.7517495,10.5496862 C20.8769143,10.6424028 20.8120177,10.6933977 20.6868528,10.8046445 L13.5524548,17.2205015 L13.27895,21.1238041 C13.576238,21.1099989 13.8546575,20.9741442 14.0484858,20.7483094 L15.9027676,18.9681813 L19.7365287,21.7959786 C20.4689714,22.2101092 20.9325432,21.993776 21.1272441,21.1469791 L21.1226156,21.1423343 Z" id="Shape" fill="#777777" fill-rule="nonzero"></path>
        </g>
        <g id="icon-币乎-n" transform="translate(410.000000, 10.000000)">
            <g id="币乎" transform="translate(7.000000, 6.000000)" fill="#777777">
                <path d="M5.4,9.00000003 C5.4,10.4911688 6.60883118,11.7 8.1,11.7 C9.59116882,11.7 10.8,10.4911688 10.8,9.00000003 C10.8,8.03538293 10.2853829,7.14403997 9.45000002,6.66173142 C8.6146171,6.17942286 7.5853829,6.17942286 6.74999998,6.66173142 C5.91461707,7.14403997 5.39999998,8.03538293 5.4,9.00000003 Z" id="路径"></path>
                <path d="M16.1779196,11.5449515 L16.1779196,9.90937523 L15.2982025,9.90937523 L15.2982025,11.6791926 L13.4253057,11.6791926 L13.4253057,9.90937523 L12.3925562,9.90937523 C11.9618796,11.8705945 10.196324,13.3444319 8.0888505,13.3444319 C5.66000918,13.3444319 3.68414348,11.3873265 3.68414348,8.98202901 C3.68414348,6.57673154 5.66022779,4.61962615 8.0888505,4.61962615 C10.196324,4.61962615 11.9618796,6.09324705 12.3925562,8.0546828 L16.1779196,8.0546828 L16.1779196,5.93757067 C16.2369464,5.76673804 16.1304796,5.5837804 16.1304796,5.39324464 C16.1304796,4.7133784 15.1467005,3.79642505 14.9422931,3.75117281 L9.38984373,0.493011283 C9.08224879,0.188370582 8.65747483,0 8.18810289,0 C7.90236971,0 7.58909071,0.108475473 7.31013468,0.293598287 L1.1838142,3.80162148 C0.53954819,4.02117064 0.0706134787,4.61313061 0.0393511646,5.31811293 L0,5.37527365 L0,12.5511103 L0.0389139294,12.6180143 C0.0382580767,12.6370679 0.0373836064,12.656338 0.0373836064,12.6756081 C0.0373836064,13.3197488 0.402912202,13.8792311 0.939618364,14.16222 L0.941367305,14.1654678 L7.2071658,17.7135468 L7.23624194,17.7115981 C7.50776497,17.8936897 7.83525411,18 8.18788427,18 C8.53308143,18 8.91828561,17.8417254 9.23462525,17.5810378 L9.2551753,17.5797387 L15.1193733,14.2678808 C15.7881245,14.0416196 16.2,13.4141506 16.2,12.675175 C16.2,12.4162196 16.1923484,11.5427863 16.1779196,11.5449515 Z" id="路径"></path>
            </g>
            <circle id="椭圆形" stroke="#555555" stroke-width="0.5" cx="15" cy="15" r="14.75"></circle>
        </g>
        <g id="icon-巴比特-n" transform="translate(459.000000, 10.000000)">
            <g id="巴比特1-copy-2" transform="translate(6.000000, 7.000000)" fill="#777777">
                <path d="M7.93333333,7.70762245 C6.39269008,7.1630832 5.28888889,5.69377823 5.28888889,3.96666667 C5.28888889,1.77593716 7.06482605,2.27373675e-13 9.25555556,2.27373675e-13 C11.4462851,2.27373675e-13 13.2222222,1.77593716 13.2222222,3.96666667 C13.2222222,5.69377823 12.118421,7.1630832 10.5777778,7.70762245 L10.5777778,5.56951654 C11.0392346,5.18841747 11.3333333,4.61188729 11.3333333,3.96666667 C11.3333333,2.81914169 10.4030805,1.88888889 9.25555556,1.88888889 C8.10803058,1.88888889 7.17777778,2.81914169 7.17777778,3.96666667 C7.17777778,4.61188729 7.47187652,5.18841747 7.93333333,5.56951654 L7.93333333,7.70762245 Z" id="合并形状"></path>
                <rect id="矩形" x="8.31111111" y="4.15555556" width="1.88888889" height="8.68888889" rx="0.944444444"></rect>
                <path d="M17.3777778,8.84343434 L15.8666667,8.46565657 L15.8666667,9.22121212 C15.8666667,12.9767484 12.822203,16.0212121 9.06666667,16.0212121 C5.31113037,16.0212121 2.26666667,12.9767484 2.26666667,9.22121212 L2.26666667,8.46565657 L0.755555556,8.84343434 L4.15555556,5.28888889 L4.15555556,9.22121212 C4.15555556,11.9335439 6.3543349,14.1323232 9.06666667,14.1323232 C11.7789984,14.1323232 13.9777778,11.9335439 13.9777778,9.22121212 L13.9777778,5.28888889 L17.3777778,8.84343434 Z" id="合并形状"></path>
            </g>
            <circle id="椭圆形" stroke="#555555" stroke-width="0.5" cx="15" cy="15" r="14.75"></circle>
        </g>
    </g>
</svg>