<?xml version="1.0" encoding="UTF-8"?>
<svg width="14px" height="8px" viewBox="0 0 14 8" version="1.1" xmlns="http://www.w3.org/2000/svg" xmlns:xlink="http://www.w3.org/1999/xlink">
    <!-- Generator: Sketch 52.2 (67145) - http://www.bohemiancoding.com/sketch -->
    <title>icon 页面箭头 向上</title>
    <desc>Created with Sketch.</desc>
    <g id="icon-页面箭头-向上" stroke="none" stroke-width="1" fill="none" fill-rule="evenodd">
        <path d="M4.06574739,4.27867308 C3.94812182,3.9932159 3.98663493,3.64395915 4.19492964,3.41440867 L8.91723271,-1.79549684 C9.17474625,-2.07943306 9.58068487,-2.06593668 9.82454176,-1.76602254 C10.0679457,-1.46566012 10.0567871,-0.992150237 9.79927353,-0.707701698 L5.56214508,3.96777612 L9.78255617,8.71264101 C10.0375168,8.99960311 10.0452304,9.47311299 9.79927355,9.77096186 C9.67349516,9.92369665 9.50541549,10 9.33726719,10 C9.1768874,10 9.01645271,9.93018067 8.89197822,9.79046194 L4.21248426,4.52961284 C4.20348048,4.51919037 4.20007661,4.50470138 4.19107283,4.49376658 C4.18421019,4.48620988 4.17697698,4.4807505 4.17012807,4.47274554 C4.13375611,4.42834998 4.11449954,4.37398024 4.08969798,4.32305263 C4.0828628,4.30758703 4.0717316,4.294651 4.06574739,4.27867308 Z" id="向下箭头" fill="#FFFFFF" transform="translate(7.000000, 4.000000) scale(1, -1) rotate(-90.000000) translate(-7.000000, -4.000000) "></path>
    </g>
</svg>